<svg xmlns="http://www.w3.org/2000/svg" version="1.1" xmlns:xlink="http://www.w3.org/1999/xlink" xmlns:svgjs="http://svgjs.dev/svgjs" width="1440" height="560" preserveAspectRatio="none" viewBox="0 0 1440 560"><g mask="url(&quot;#SvgjsMask1000&quot;)" fill="none"><rect width="1440" height="560" x="0" y="0" fill="#0e2a47"></rect><path d="M0,545.074C125.844,556.568,257.435,633.102,370.141,575.95C483.313,518.562,510.2,372.46,565.562,258.283C622.316,141.234,723.031,27.299,698.07,-100.367C673.169,-227.728,545.863,-305.967,440.444,-381.647C353.032,-444.4,244.441,-453.63,145.871,-496.79C28.586,-548.145,-68.999,-688.819,-193.577,-659.263C-316.803,-630.028,-333.986,-456.946,-418.738,-362.838C-505.86,-266.099,-663.286,-225.954,-697.041,-100.219C-730.966,26.148,-655.662,156.502,-588.269,268.653C-525.959,372.344,-438.585,460.637,-329.097,512.084C-227.252,559.94,-112.062,534.839,0,545.074" fill="#0b2239"></path><path d="M1440 1036.88C1556.09 1048.3600000000001 1681.636 1151.7530000000002 1779.101 1087.6509999999998 1876.854 1023.36 1841.47 869.398 1867.933 755.4300000000001 1888.6109999999999 666.375 1908.915 582.351 1917.562 491.337 1928.924 371.757 1986.371 242.563 1926.559 138.394 1866.0819999999999 33.06700000000001 1736.367-34.00800000000004 1614.924-35.736999999999966 1498.001-37.402000000000044 1421.936 85.55200000000002 1313.643 129.66899999999998 1220.792 167.495 1106.288 140.257 1028.289 203.25099999999998 945.345 270.239 910.761 377.33500000000004 880.429 479.546 845.967 595.674 788.961 724.174 841.277 833.428 893.566 942.624 1026.792 985.64 1141.424 1024.593 1237.687 1057.304 1338.824 1026.875 1440 1036.88" fill="#113255"></path></g><defs><mask id="SvgjsMask1000"><rect width="1440" height="560" fill="#ffffff"></rect></mask></defs></svg>